<?xml version="1.0" encoding="UTF-8"?>
<!DOCTYPE svg PUBLIC "-//W3C//DTD SVG 1.1//EN" "http://www.w3.org/Graphics/SVG/1.1/DTD/svg11.dtd">
<svg xmlns="http://www.w3.org/2000/svg" version="1.1" width="2944px" height="1479px" style="shape-rendering:geometricPrecision; text-rendering:geometricPrecision; image-rendering:optimizeQuality; fill-rule:evenodd; clip-rule:evenodd" xmlns:xlink="http://www.w3.org/1999/xlink">
<g><path style="opacity:1" fill="#f04f39" d="M 771.5,107.5 C 763.567,109.468 755.234,110.135 746.5,109.5C 746.5,110.5 746.5,111.5 746.5,112.5C 738.167,112.5 729.833,112.5 721.5,112.5C 721.5,113.5 721.5,114.5 721.5,115.5C 713.167,115.5 704.833,115.5 696.5,115.5C 696.5,116.5 696.5,117.5 696.5,118.5C 679.502,119.218 662.502,119.884 645.5,120.5C 645.5,121.5 645.5,122.5 645.5,123.5C 637.167,123.5 628.833,123.5 620.5,123.5C 620.5,124.5 620.5,125.5 620.5,126.5C 612.167,126.5 603.833,126.5 595.5,126.5C 595.5,127.5 595.5,128.5 595.5,129.5C 578.833,130.167 562.167,130.833 545.5,131.5C 545.5,132.5 545.5,133.5 545.5,134.5C 536.766,133.865 528.433,134.532 520.5,136.5C 500.278,132.574 479.944,129.074 459.5,126C 467.515,89.089 475.849,52.2556 484.5,15.5C 571.483,27.2441 654.817,51.4107 734.5,88C 747.211,94.0195 759.544,100.519 771.5,107.5 Z"/></g>
<g><path style="opacity:1" fill="#f15439" d="M 771.5,107.5 C 821.969,133.384 868.636,164.718 911.5,201.5C 903.833,201.5 896.167,201.5 888.5,201.5C 888.5,202.5 888.5,203.5 888.5,204.5C 880.167,204.5 871.833,204.5 863.5,204.5C 863.5,205.5 863.5,206.5 863.5,207.5C 855.167,207.5 846.833,207.5 838.5,207.5C 838.5,208.5 838.5,209.5 838.5,210.5C 821.833,211.167 805.167,211.833 788.5,212.5C 788.5,213.5 788.5,214.5 788.5,215.5C 780.167,215.5 771.833,215.5 763.5,215.5C 763.5,216.5 763.5,217.5 763.5,218.5C 754.983,218.174 746.65,218.507 738.5,219.5C 670.589,179.636 597.922,151.969 520.5,136.5C 528.433,134.532 536.766,133.865 545.5,134.5C 545.5,133.5 545.5,132.5 545.5,131.5C 562.167,130.833 578.833,130.167 595.5,129.5C 595.5,128.5 595.5,127.5 595.5,126.5C 603.833,126.5 612.167,126.5 620.5,126.5C 620.5,125.5 620.5,124.5 620.5,123.5C 628.833,123.5 637.167,123.5 645.5,123.5C 645.5,122.5 645.5,121.5 645.5,120.5C 662.502,119.884 679.502,119.218 696.5,118.5C 696.5,117.5 696.5,116.5 696.5,115.5C 704.833,115.5 713.167,115.5 721.5,115.5C 721.5,114.5 721.5,113.5 721.5,112.5C 729.833,112.5 738.167,112.5 746.5,112.5C 746.5,111.5 746.5,110.5 746.5,109.5C 755.234,110.135 763.567,109.468 771.5,107.5 Z"/></g>
<g><path style="opacity:1" fill="#f15a38" d="M 911.5,201.5 C 946.777,229.776 978.777,261.443 1007.5,296.5C 1006.6,297.209 1006.26,298.209 1006.5,299.5C 997.833,299.5 989.167,299.5 980.5,299.5C 980.5,300.5 980.5,301.5 980.5,302.5C 972.167,302.5 963.833,302.5 955.5,302.5C 955.5,303.5 955.5,304.5 955.5,305.5C 938.833,306.167 922.167,306.833 905.5,307.5C 905.5,308.5 905.5,309.5 905.5,310.5C 897.167,310.5 888.833,310.5 880.5,310.5C 880.5,311.5 880.5,312.5 880.5,313.5C 875.167,313.5 869.833,313.5 864.5,313.5C 825.715,277.783 783.715,246.449 738.5,219.5C 746.65,218.507 754.983,218.174 763.5,218.5C 763.5,217.5 763.5,216.5 763.5,215.5C 771.833,215.5 780.167,215.5 788.5,215.5C 788.5,214.5 788.5,213.5 788.5,212.5C 805.167,211.833 821.833,211.167 838.5,210.5C 838.5,209.5 838.5,208.5 838.5,207.5C 846.833,207.5 855.167,207.5 863.5,207.5C 863.5,206.5 863.5,205.5 863.5,204.5C 871.833,204.5 880.167,204.5 888.5,204.5C 888.5,203.5 888.5,202.5 888.5,201.5C 896.167,201.5 903.833,201.5 911.5,201.5 Z"/></g>
<g><path style="opacity:1" fill="#f15a38" d="M 722.5,330.5 C 717.5,330.5 712.5,330.5 707.5,330.5C 707.5,331.5 707.5,332.5 707.5,333.5C 690.833,334.167 674.167,334.833 657.5,335.5C 657.5,336.5 657.5,337.5 657.5,338.5C 648.833,338.5 640.167,338.5 631.5,338.5C 631.5,339.5 631.5,340.5 631.5,341.5C 623.167,341.5 614.833,341.5 606.5,341.5C 606.5,342.5 606.5,343.5 606.5,344.5C 589.833,345.167 573.167,345.833 556.5,346.5C 556.5,347.5 556.5,348.5 556.5,349.5C 548.167,349.5 539.833,349.5 531.5,349.5C 531.5,350.5 531.5,351.5 531.5,352.5C 523.167,352.5 514.833,352.5 506.5,352.5C 506.5,353.5 506.5,354.5 506.5,355.5C 475.941,347.796 444.941,342.796 413.5,340.5C 421.395,304.195 429.228,267.862 437,231.5C 437.839,230.376 439.006,229.709 440.5,229.5C 543.326,239.435 637.326,273.102 722.5,330.5 Z"/></g>
<g><path style="opacity:1" fill="#f26037" d="M 1007.5,296.5 C 1033.09,325.674 1055.76,357.007 1075.5,390.5C 1067.35,391.493 1059.02,391.826 1050.5,391.5C 1050.5,392.5 1050.5,393.5 1050.5,394.5C 1042.17,394.5 1033.83,394.5 1025.5,394.5C 1025.5,395.5 1025.5,396.5 1025.5,397.5C 1017.17,397.5 1008.83,397.5 1000.5,397.5C 1000.5,398.5 1000.5,399.5 1000.5,400.5C 983.833,401.167 967.167,401.833 950.5,402.5C 950.5,403.5 950.5,404.5 950.5,405.5C 948.833,405.5 947.167,405.5 945.5,405.5C 921.314,372.541 894.314,341.875 864.5,313.5C 869.833,313.5 875.167,313.5 880.5,313.5C 880.5,312.5 880.5,311.5 880.5,310.5C 888.833,310.5 897.167,310.5 905.5,310.5C 905.5,309.5 905.5,308.5 905.5,307.5C 922.167,306.833 938.833,306.167 955.5,305.5C 955.5,304.5 955.5,303.5 955.5,302.5C 963.833,302.5 972.167,302.5 980.5,302.5C 980.5,301.5 980.5,300.5 980.5,299.5C 989.167,299.5 997.833,299.5 1006.5,299.5C 1006.26,298.209 1006.6,297.209 1007.5,296.5 Z"/></g>
<g><path style="opacity:1" fill="#f26037" d="M 722.5,330.5 C 759.979,355.607 793.979,384.941 824.5,418.5C 816.35,419.493 808.017,419.826 799.5,419.5C 799.5,420.5 799.5,421.5 799.5,422.5C 791.167,422.5 782.833,422.5 774.5,422.5C 774.5,423.5 774.5,424.5 774.5,425.5C 757.833,426.167 741.167,426.833 724.5,427.5C 724.5,428.5 724.5,429.5 724.5,430.5C 715.833,430.5 707.167,430.5 698.5,430.5C 698.5,431.5 698.5,432.5 698.5,433.5C 690.167,433.5 681.833,433.5 673.5,433.5C 673.5,434.5 673.5,435.5 673.5,436.5C 623.045,399.108 567.378,372.108 506.5,355.5C 506.5,354.5 506.5,353.5 506.5,352.5C 514.833,352.5 523.167,352.5 531.5,352.5C 531.5,351.5 531.5,350.5 531.5,349.5C 539.833,349.5 548.167,349.5 556.5,349.5C 556.5,348.5 556.5,347.5 556.5,346.5C 573.167,345.833 589.833,345.167 606.5,344.5C 606.5,343.5 606.5,342.5 606.5,341.5C 614.833,341.5 623.167,341.5 631.5,341.5C 631.5,340.5 631.5,339.5 631.5,338.5C 640.167,338.5 648.833,338.5 657.5,338.5C 657.5,337.5 657.5,336.5 657.5,335.5C 674.167,334.833 690.833,334.167 707.5,333.5C 707.5,332.5 707.5,331.5 707.5,330.5C 712.5,330.5 717.5,330.5 722.5,330.5 Z"/></g>
<g><path style="opacity:1" fill="#f26637" d="M 1075.5,390.5 C 1100.66,430.493 1121.33,472.826 1137.5,517.5C 1130.17,517.5 1122.83,517.5 1115.5,517.5C 1115.5,518.5 1115.5,519.5 1115.5,520.5C 1098.5,521.116 1081.5,521.782 1064.5,522.5C 1064.5,523.5 1064.5,524.5 1064.5,525.5C 1056.17,525.5 1047.83,525.5 1039.5,525.5C 1039.5,526.5 1039.5,527.5 1039.5,528.5C 1031.17,528.5 1022.83,528.5 1014.5,528.5C 995.85,484.846 972.85,443.846 945.5,405.5C 947.167,405.5 948.833,405.5 950.5,405.5C 950.5,404.5 950.5,403.5 950.5,402.5C 967.167,401.833 983.833,401.167 1000.5,400.5C 1000.5,399.5 1000.5,398.5 1000.5,397.5C 1008.83,397.5 1017.17,397.5 1025.5,397.5C 1025.5,396.5 1025.5,395.5 1025.5,394.5C 1033.83,394.5 1042.17,394.5 1050.5,394.5C 1050.5,393.5 1050.5,392.5 1050.5,391.5C 1059.02,391.826 1067.35,391.493 1075.5,390.5 Z"/></g>
<g><path style="opacity:1" fill="#f26637" d="M 824.5,418.5 C 858.759,455.657 887.093,496.99 909.5,542.5C 903.5,542.5 897.5,542.5 891.5,542.5C 891.5,543.5 891.5,544.5 891.5,545.5C 883.167,545.5 874.833,545.5 866.5,545.5C 866.5,546.5 866.5,547.5 866.5,548.5C 849.833,549.167 833.167,549.833 816.5,550.5C 816.5,551.5 816.5,552.5 816.5,553.5C 808.167,553.5 799.833,553.5 791.5,553.5C 791.5,554.5 791.5,555.5 791.5,556.5C 788.5,556.5 785.5,556.5 782.5,556.5C 753.895,509.558 717.562,469.558 673.5,436.5C 673.5,435.5 673.5,434.5 673.5,433.5C 681.833,433.5 690.167,433.5 698.5,433.5C 698.5,432.5 698.5,431.5 698.5,430.5C 707.167,430.5 715.833,430.5 724.5,430.5C 724.5,429.5 724.5,428.5 724.5,427.5C 741.167,426.833 757.833,426.167 774.5,425.5C 774.5,424.5 774.5,423.5 774.5,422.5C 782.833,422.5 791.167,422.5 799.5,422.5C 799.5,421.5 799.5,420.5 799.5,419.5C 808.017,419.826 816.35,419.493 824.5,418.5 Z"/></g>
<g><path style="opacity:1" fill="#f26237" d="M 518.5,453.5 C 504.188,454.538 489.855,455.205 475.5,455.5C 475.5,456.5 475.5,457.5 475.5,458.5C 467.167,458.5 458.833,458.5 450.5,458.5C 450.5,459.5 450.5,460.5 450.5,461.5C 442.167,461.5 433.833,461.5 425.5,461.5C 425.5,462.5 425.5,463.5 425.5,464.5C 417.167,464.5 408.833,464.5 400.5,464.5C 400.5,465.5 400.5,466.5 400.5,467.5C 383.502,468.218 366.502,468.884 349.5,469.5C 349.5,470.5 349.5,471.5 349.5,472.5C 341.167,472.5 332.833,472.5 324.5,472.5C 324.5,473.5 324.5,474.5 324.5,475.5C 316.167,475.5 307.833,475.5 299.5,475.5C 299.5,476.5 299.5,477.5 299.5,478.5C 291.167,478.5 282.833,478.5 274.5,478.5C 274.5,479.5 274.5,480.5 274.5,481.5C 257.833,482.167 241.167,482.833 224.5,483.5C 224.5,484.5 224.5,485.5 224.5,486.5C 216.167,486.5 207.833,486.5 199.5,486.5C 199.5,487.5 199.5,488.5 199.5,489.5C 190.833,489.5 182.167,489.5 173.5,489.5C 236.732,448.486 306.232,428.153 382,428.5C 429.244,428.077 474.744,436.41 518.5,453.5 Z"/></g>
<g><path style="opacity:1" fill="#f26637" d="M 518.5,453.5 C 543.482,462.324 567.148,473.824 589.5,488C 623.097,509.429 652.097,535.929 676.5,567.5C 672.833,567.5 669.167,567.5 665.5,567.5C 665.5,568.5 665.5,569.5 665.5,570.5C 657.167,570.5 648.833,570.5 640.5,570.5C 640.5,571.5 640.5,572.5 640.5,573.5C 623.833,574.167 607.167,574.833 590.5,575.5C 590.5,576.5 590.5,577.5 590.5,578.5C 581.833,578.5 573.167,578.5 564.5,578.5C 564.5,579.5 564.5,580.5 564.5,581.5C 556.167,581.5 547.833,581.5 539.5,581.5C 539.5,582.5 539.5,583.5 539.5,584.5C 535.5,584.5 531.5,584.5 527.5,584.5C 459.507,541.714 386.507,530.547 308.5,551C 264.263,564.27 226.263,587.436 194.5,620.5C 193.167,620.5 191.833,620.5 190.5,620.5C 190.5,621.5 190.5,622.5 190.5,623.5C 182.167,623.5 173.833,623.5 165.5,623.5C 165.5,624.5 165.5,625.5 165.5,626.5C 157.167,626.5 148.833,626.5 140.5,626.5C 140.5,627.5 140.5,628.5 140.5,629.5C 123.833,630.167 107.167,630.833 90.5,631.5C 90.5,632.5 90.5,633.5 90.5,634.5C 82.1667,634.5 73.8333,634.5 65.5,634.5C 65.5,635.5 65.5,636.5 65.5,637.5C 58.5,637.5 51.5,637.5 44.5,637.5C 72.6434,575.21 115.643,525.877 173.5,489.5C 182.167,489.5 190.833,489.5 199.5,489.5C 199.5,488.5 199.5,487.5 199.5,486.5C 207.833,486.5 216.167,486.5 224.5,486.5C 224.5,485.5 224.5,484.5 224.5,483.5C 241.167,482.833 257.833,482.167 274.5,481.5C 274.5,480.5 274.5,479.5 274.5,478.5C 282.833,478.5 291.167,478.5 299.5,478.5C 299.5,477.5 299.5,476.5 299.5,475.5C 307.833,475.5 316.167,475.5 324.5,475.5C 324.5,474.5 324.5,473.5 324.5,472.5C 332.833,472.5 341.167,472.5 349.5,472.5C 349.5,471.5 349.5,470.5 349.5,469.5C 366.502,468.884 383.502,468.218 400.5,467.5C 400.5,466.5 400.5,465.5 400.5,464.5C 408.833,464.5 417.167,464.5 425.5,464.5C 425.5,463.5 425.5,462.5 425.5,461.5C 433.833,461.5 442.167,461.5 450.5,461.5C 450.5,460.5 450.5,459.5 450.5,458.5C 458.833,458.5 467.167,458.5 475.5,458.5C 475.5,457.5 475.5,456.5 475.5,455.5C 489.855,455.205 504.188,454.538 518.5,453.5 Z"/></g>
<g><path style="opacity:1" fill="#f36b37" d="M 1137.5,517.5 C 1142.83,530.149 1147.16,543.149 1150.5,556.5C 1146.17,556.5 1141.83,556.5 1137.5,556.5C 1137.5,557.5 1137.5,558.5 1137.5,559.5C 1129.17,559.5 1120.83,559.5 1112.5,559.5C 1112.5,560.5 1112.5,561.5 1112.5,562.5C 1095.5,563.218 1078.5,563.884 1061.5,564.5C 1061.5,565.5 1061.5,566.5 1061.5,567.5C 1053.17,567.5 1044.83,567.5 1036.5,567.5C 1036.5,568.5 1036.5,569.5 1036.5,570.5C 1034.5,570.5 1032.5,570.5 1030.5,570.5C 1025.76,556.271 1020.42,542.271 1014.5,528.5C 1022.83,528.5 1031.17,528.5 1039.5,528.5C 1039.5,527.5 1039.5,526.5 1039.5,525.5C 1047.83,525.5 1056.17,525.5 1064.5,525.5C 1064.5,524.5 1064.5,523.5 1064.5,522.5C 1081.5,521.782 1098.5,521.116 1115.5,520.5C 1115.5,519.5 1115.5,518.5 1115.5,517.5C 1122.83,517.5 1130.17,517.5 1137.5,517.5 Z"/></g>
<g><path style="opacity:1" fill="#f36b37" d="M 909.5,542.5 C 916.286,555.076 922.286,568.076 927.5,581.5C 922.833,581.5 918.167,581.5 913.5,581.5C 913.5,582.5 913.5,583.5 913.5,584.5C 905.167,584.5 896.833,584.5 888.5,584.5C 888.5,585.5 888.5,586.5 888.5,587.5C 871.833,588.167 855.167,588.833 838.5,589.5C 838.5,590.5 838.5,591.5 838.5,592.5C 830.167,592.5 821.833,592.5 813.5,592.5C 813.5,593.5 813.5,594.5 813.5,595.5C 810.5,595.5 807.5,595.5 804.5,595.5C 797.435,582.373 790.102,569.373 782.5,556.5C 785.5,556.5 788.5,556.5 791.5,556.5C 791.5,555.5 791.5,554.5 791.5,553.5C 799.833,553.5 808.167,553.5 816.5,553.5C 816.5,552.5 816.5,551.5 816.5,550.5C 833.167,549.833 849.833,549.167 866.5,548.5C 866.5,547.5 866.5,546.5 866.5,545.5C 874.833,545.5 883.167,545.5 891.5,545.5C 891.5,544.5 891.5,543.5 891.5,542.5C 897.5,542.5 903.5,542.5 909.5,542.5 Z"/></g>
<g><path style="opacity:1" fill="#f46e36" d="M 1150.5,556.5 C 1157.39,577.397 1163.06,598.731 1167.5,620.5C 1164.83,620.5 1162.17,620.5 1159.5,620.5C 1159.5,621.5 1159.5,622.5 1159.5,623.5C 1151.17,623.5 1142.83,623.5 1134.5,623.5C 1134.5,624.5 1134.5,625.5 1134.5,626.5C 1126.17,626.5 1117.83,626.5 1109.5,626.5C 1109.5,627.5 1109.5,628.5 1109.5,629.5C 1092.83,630.167 1076.17,630.833 1059.5,631.5C 1059.5,632.5 1059.5,633.5 1059.5,634.5C 1055.83,634.5 1052.17,634.5 1048.5,634.5C 1043.74,612.799 1037.74,591.466 1030.5,570.5C 1032.5,570.5 1034.5,570.5 1036.5,570.5C 1036.5,569.5 1036.5,568.5 1036.5,567.5C 1044.83,567.5 1053.17,567.5 1061.5,567.5C 1061.5,566.5 1061.5,565.5 1061.5,564.5C 1078.5,563.884 1095.5,563.218 1112.5,562.5C 1112.5,561.5 1112.5,560.5 1112.5,559.5C 1120.83,559.5 1129.17,559.5 1137.5,559.5C 1137.5,558.5 1137.5,557.5 1137.5,556.5C 1141.83,556.5 1146.17,556.5 1150.5,556.5 Z"/></g>
<g><path style="opacity:1" fill="#f36b37" d="M 676.5,567.5 C 686.637,579.65 695.637,592.65 703.5,606.5C 698.167,606.5 692.833,606.5 687.5,606.5C 687.5,607.5 687.5,608.5 687.5,609.5C 679.167,609.5 670.833,609.5 662.5,609.5C 662.5,610.5 662.5,611.5 662.5,612.5C 654.167,612.5 645.833,612.5 637.5,612.5C 637.5,613.5 637.5,614.5 637.5,615.5C 620.833,616.167 604.167,616.833 587.5,617.5C 587.5,618.5 587.5,619.5 587.5,620.5C 581.5,620.5 575.5,620.5 569.5,620.5C 556.358,607.348 542.358,595.348 527.5,584.5C 531.5,584.5 535.5,584.5 539.5,584.5C 539.5,583.5 539.5,582.5 539.5,581.5C 547.833,581.5 556.167,581.5 564.5,581.5C 564.5,580.5 564.5,579.5 564.5,578.5C 573.167,578.5 581.833,578.5 590.5,578.5C 590.5,577.5 590.5,576.5 590.5,575.5C 607.167,574.833 623.833,574.167 640.5,573.5C 640.5,572.5 640.5,571.5 640.5,570.5C 648.833,570.5 657.167,570.5 665.5,570.5C 665.5,569.5 665.5,568.5 665.5,567.5C 669.167,567.5 672.833,567.5 676.5,567.5 Z"/></g>
<g><path style="opacity:1" fill="#f46e36" d="M 927.5,581.5 C 935.973,602.254 942.64,623.588 947.5,645.5C 942.833,645.5 938.167,645.5 933.5,645.5C 933.5,646.5 933.5,647.5 933.5,648.5C 925.167,648.5 916.833,648.5 908.5,648.5C 908.5,649.5 908.5,650.5 908.5,651.5C 900.167,651.5 891.833,651.5 883.5,651.5C 883.5,652.5 883.5,653.5 883.5,654.5C 866.502,655.218 849.502,655.884 832.5,656.5C 832.5,657.5 832.5,658.5 832.5,659.5C 831.167,659.5 829.833,659.5 828.5,659.5C 821.514,637.888 813.514,616.554 804.5,595.5C 807.5,595.5 810.5,595.5 813.5,595.5C 813.5,594.5 813.5,593.5 813.5,592.5C 821.833,592.5 830.167,592.5 838.5,592.5C 838.5,591.5 838.5,590.5 838.5,589.5C 855.167,588.833 871.833,588.167 888.5,587.5C 888.5,586.5 888.5,585.5 888.5,584.5C 896.833,584.5 905.167,584.5 913.5,584.5C 913.5,583.5 913.5,582.5 913.5,581.5C 918.167,581.5 922.833,581.5 927.5,581.5 Z"/></g>
<g><path style="opacity:1" fill="#f46e36" d="M 703.5,606.5 C 715.859,626.556 725.526,647.89 732.5,670.5C 724.167,670.5 715.833,670.5 707.5,670.5C 707.5,671.5 707.5,672.5 707.5,673.5C 699.167,673.5 690.833,673.5 682.5,673.5C 682.5,674.5 682.5,675.5 682.5,676.5C 674.167,676.5 665.833,676.5 657.5,676.5C 657.5,677.5 657.5,678.5 657.5,679.5C 649.833,679.5 642.167,679.5 634.5,679.5C 634.5,680.5 634.5,681.5 634.5,682.5C 626.5,682.5 618.5,682.5 610.5,682.5C 599.814,659.775 586.147,639.108 569.5,620.5C 575.5,620.5 581.5,620.5 587.5,620.5C 587.5,619.5 587.5,618.5 587.5,617.5C 604.167,616.833 620.833,616.167 637.5,615.5C 637.5,614.5 637.5,613.5 637.5,612.5C 645.833,612.5 654.167,612.5 662.5,612.5C 662.5,611.5 662.5,610.5 662.5,609.5C 670.833,609.5 679.167,609.5 687.5,609.5C 687.5,608.5 687.5,607.5 687.5,606.5C 692.833,606.5 698.167,606.5 703.5,606.5 Z"/></g>
<g><path style="opacity:1" fill="#f36b37" d="M 194.5,620.5 C 181.224,635.112 169.891,651.112 160.5,668.5C 144.505,669.273 128.505,669.94 112.5,670.5C 112.5,671.5 112.5,672.5 112.5,673.5C 104.167,673.5 95.8333,673.5 87.5,673.5C 87.5,674.5 87.5,675.5 87.5,676.5C 79.1667,676.5 70.8333,676.5 62.5,676.5C 62.5,677.5 62.5,678.5 62.5,679.5C 54.1667,679.5 45.8333,679.5 37.5,679.5C 37.5,680.5 37.5,681.5 37.5,682.5C 34.1667,682.5 30.8333,682.5 27.5,682.5C 31.8056,666.907 37.4723,651.907 44.5,637.5C 51.5,637.5 58.5,637.5 65.5,637.5C 65.5,636.5 65.5,635.5 65.5,634.5C 73.8333,634.5 82.1667,634.5 90.5,634.5C 90.5,633.5 90.5,632.5 90.5,631.5C 107.167,630.833 123.833,630.167 140.5,629.5C 140.5,628.5 140.5,627.5 140.5,626.5C 148.833,626.5 157.167,626.5 165.5,626.5C 165.5,625.5 165.5,624.5 165.5,623.5C 173.833,623.5 182.167,623.5 190.5,623.5C 190.5,622.5 190.5,621.5 190.5,620.5C 191.833,620.5 193.167,620.5 194.5,620.5 Z"/></g>
<g><path style="opacity:1" fill="#f47336" d="M 1167.5,620.5 C 1174.5,655.516 1179.17,690.85 1181.5,726.5C 1179.83,726.5 1178.17,726.5 1176.5,726.5C 1176.5,727.5 1176.5,728.5 1176.5,729.5C 1168.17,729.5 1159.83,729.5 1151.5,729.5C 1151.5,730.5 1151.5,731.5 1151.5,732.5C 1143.17,732.5 1134.83,732.5 1126.5,732.5C 1126.5,733.5 1126.5,734.5 1126.5,735.5C 1109.5,736.218 1092.5,736.884 1075.5,737.5C 1075.5,738.5 1075.5,739.5 1075.5,740.5C 1071.17,740.5 1066.83,740.5 1062.5,740.5C 1060.73,704.767 1056.06,669.434 1048.5,634.5C 1052.17,634.5 1055.83,634.5 1059.5,634.5C 1059.5,633.5 1059.5,632.5 1059.5,631.5C 1076.17,630.833 1092.83,630.167 1109.5,629.5C 1109.5,628.5 1109.5,627.5 1109.5,626.5C 1117.83,626.5 1126.17,626.5 1134.5,626.5C 1134.5,625.5 1134.5,624.5 1134.5,623.5C 1142.83,623.5 1151.17,623.5 1159.5,623.5C 1159.5,622.5 1159.5,621.5 1159.5,620.5C 1162.17,620.5 1164.83,620.5 1167.5,620.5 Z"/></g>
<g><path style="opacity:1" fill="#f47336" d="M 947.5,645.5 C 956.824,680.097 962.158,715.43 963.5,751.5C 959.167,751.5 954.833,751.5 950.5,751.5C 950.5,752.5 950.5,753.5 950.5,754.5C 942.167,754.5 933.833,754.5 925.5,754.5C 925.5,755.5 925.5,756.5 925.5,757.5C 917.167,757.5 908.833,757.5 900.5,757.5C 900.5,758.5 900.5,759.5 900.5,760.5C 891.833,760.5 883.167,760.5 874.5,760.5C 874.5,761.5 874.5,762.5 874.5,763.5C 864.393,763.109 854.393,763.776 844.5,765.5C 843.064,729.552 837.73,694.218 828.5,659.5C 829.833,659.5 831.167,659.5 832.5,659.5C 832.5,658.5 832.5,657.5 832.5,656.5C 849.502,655.884 866.502,655.218 883.5,654.5C 883.5,653.5 883.5,652.5 883.5,651.5C 891.833,651.5 900.167,651.5 908.5,651.5C 908.5,650.5 908.5,649.5 908.5,648.5C 916.833,648.5 925.167,648.5 933.5,648.5C 933.5,647.5 933.5,646.5 933.5,645.5C 938.167,645.5 942.833,645.5 947.5,645.5 Z"/></g>
<g><path style="opacity:1" fill="#f46e36" d="M 160.5,668.5 C 149.142,689.553 141.475,711.886 137.5,735.5C 127.273,737.235 116.94,737.902 106.5,737.5C 106.5,738.5 106.5,739.5 106.5,740.5C 99.1667,740.5 91.8333,740.5 84.5,740.5C 84.5,741.5 84.5,742.5 84.5,743.5C 76.1667,743.5 67.8333,743.5 59.5,743.5C 59.5,744.5 59.5,745.5 59.5,746.5C 51.1667,746.5 42.8333,746.5 34.5,746.5C 34.5,747.5 34.5,748.5 34.5,749.5C 28.1667,749.5 21.8333,749.5 15.5,749.5C 17.4526,726.783 21.4526,704.45 27.5,682.5C 30.8333,682.5 34.1667,682.5 37.5,682.5C 37.5,681.5 37.5,680.5 37.5,679.5C 45.8333,679.5 54.1667,679.5 62.5,679.5C 62.5,678.5 62.5,677.5 62.5,676.5C 70.8333,676.5 79.1667,676.5 87.5,676.5C 87.5,675.5 87.5,674.5 87.5,673.5C 95.8333,673.5 104.167,673.5 112.5,673.5C 112.5,672.5 112.5,671.5 112.5,670.5C 128.505,669.94 144.505,669.273 160.5,668.5 Z"/></g>
<g><path style="opacity:1" fill="#f47336" d="M 732.5,670.5 C 743.664,705.158 749.331,740.824 749.5,777.5C 733.505,778.273 717.505,778.94 701.5,779.5C 701.5,780.5 701.5,781.5 701.5,782.5C 693.167,782.5 684.833,782.5 676.5,782.5C 676.5,783.5 676.5,784.5 676.5,785.5C 668.167,785.5 659.833,785.5 651.5,785.5C 651.5,786.5 651.5,787.5 651.5,788.5C 643.833,788.5 636.167,788.5 628.5,788.5C 631.367,751.703 625.367,716.37 610.5,682.5C 618.5,682.5 626.5,682.5 634.5,682.5C 634.5,681.5 634.5,680.5 634.5,679.5C 642.167,679.5 649.833,679.5 657.5,679.5C 657.5,678.5 657.5,677.5 657.5,676.5C 665.833,676.5 674.167,676.5 682.5,676.5C 682.5,675.5 682.5,674.5 682.5,673.5C 690.833,673.5 699.167,673.5 707.5,673.5C 707.5,672.5 707.5,671.5 707.5,670.5C 715.833,670.5 724.167,670.5 732.5,670.5 Z"/></g>
<g><path style="opacity:1" fill="#1260ac" d="M 379.5,711.5 C 408.821,711.893 429.654,725.227 442,751.5C 451.506,789.987 437.673,816.153 400.5,830C 371.744,836.748 347.911,828.914 329,806.5C 311.422,776.625 315.255,749.792 340.5,726C 352.282,717.686 365.282,712.853 379.5,711.5 Z"/></g>
<g><path style="opacity:1" fill="#f57935" d="M 1181.5,726.5 C 1183.31,766.239 1182.31,805.906 1178.5,845.5C 1138.5,845.5 1098.5,845.5 1058.5,845.5C 1062.36,810.587 1063.69,775.587 1062.5,740.5C 1066.83,740.5 1071.17,740.5 1075.5,740.5C 1075.5,739.5 1075.5,738.5 1075.5,737.5C 1092.5,736.884 1109.5,736.218 1126.5,735.5C 1126.5,734.5 1126.5,733.5 1126.5,732.5C 1134.83,732.5 1143.17,732.5 1151.5,732.5C 1151.5,731.5 1151.5,730.5 1151.5,729.5C 1159.83,729.5 1168.17,729.5 1176.5,729.5C 1176.5,728.5 1176.5,727.5 1176.5,726.5C 1178.17,726.5 1179.83,726.5 1181.5,726.5 Z"/></g>
<g><path style="opacity:1" fill="#f47336" d="M 137.5,735.5 C 131.31,772.603 134.31,808.936 146.5,844.5C 131.515,845.432 116.515,846.099 101.5,846.5C 101.5,847.5 101.5,848.5 101.5,849.5C 93.1667,849.5 84.8333,849.5 76.5,849.5C 76.5,850.5 76.5,851.5 76.5,852.5C 68.1667,852.5 59.8333,852.5 51.5,852.5C 51.5,853.5 51.5,854.5 51.5,855.5C 43.1667,855.5 34.8333,855.5 26.5,855.5C 16.5999,820.951 12.9332,785.618 15.5,749.5C 21.8333,749.5 28.1667,749.5 34.5,749.5C 34.5,748.5 34.5,747.5 34.5,746.5C 42.8333,746.5 51.1667,746.5 59.5,746.5C 59.5,745.5 59.5,744.5 59.5,743.5C 67.8333,743.5 76.1667,743.5 84.5,743.5C 84.5,742.5 84.5,741.5 84.5,740.5C 91.8333,740.5 99.1667,740.5 106.5,740.5C 106.5,739.5 106.5,738.5 106.5,737.5C 116.94,737.902 127.273,737.235 137.5,735.5 Z"/></g>
<g><path style="opacity:1" fill="#f57935" d="M 963.5,751.5 C 964.609,782.875 962.942,814.042 958.5,845C 918.501,845.5 878.501,845.667 838.5,845.5C 842.569,818.993 844.569,792.327 844.5,765.5C 854.393,763.776 864.393,763.109 874.5,763.5C 874.5,762.5 874.5,761.5 874.5,760.5C 883.167,760.5 891.833,760.5 900.5,760.5C 900.5,759.5 900.5,758.5 900.5,757.5C 908.833,757.5 917.167,757.5 925.5,757.5C 925.5,756.5 925.5,755.5 925.5,754.5C 933.833,754.5 942.167,754.5 950.5,754.5C 950.5,753.5 950.5,752.5 950.5,751.5C 954.833,751.5 959.167,751.5 963.5,751.5 Z"/></g>
<g><path style="opacity:1" fill="#f57935" d="M 749.5,777.5 C 748.045,811.7 742.045,845.034 731.5,877.5C 727.167,877.5 722.833,877.5 718.5,877.5C 718.5,878.5 718.5,879.5 718.5,880.5C 710.167,880.5 701.833,880.5 693.5,880.5C 693.5,881.5 693.5,882.5 693.5,883.5C 676.833,884.167 660.167,884.833 643.5,885.5C 643.5,886.5 643.5,887.5 643.5,888.5C 634.833,888.5 626.167,888.5 617.5,888.5C 617.5,889.5 617.5,890.5 617.5,891.5C 609.833,891.5 602.167,891.5 594.5,891.5C 614.617,860.149 625.95,825.815 628.5,788.5C 636.167,788.5 643.833,788.5 651.5,788.5C 651.5,787.5 651.5,786.5 651.5,785.5C 659.833,785.5 668.167,785.5 676.5,785.5C 676.5,784.5 676.5,783.5 676.5,782.5C 684.833,782.5 693.167,782.5 701.5,782.5C 701.5,781.5 701.5,780.5 701.5,779.5C 717.505,778.94 733.505,778.273 749.5,777.5 Z"/></g>
<g><path style="opacity:1" fill="#f57935" d="M 146.5,844.5 C 159.719,879.694 179.719,910.361 206.5,936.5C 193.875,937.803 181.208,938.47 168.5,938.5C 168.5,939.5 168.5,940.5 168.5,941.5C 160.167,941.5 151.833,941.5 143.5,941.5C 143.5,942.5 143.5,943.5 143.5,944.5C 135.167,944.5 126.833,944.5 118.5,944.5C 118.5,945.5 118.5,946.5 118.5,947.5C 109.833,947.5 101.167,947.5 92.5,947.5C 92.5,948.5 92.5,949.5 92.5,950.5C 84.5,950.5 76.5,950.5 68.5,950.5C 48.7157,921.514 34.7157,889.847 26.5,855.5C 34.8333,855.5 43.1667,855.5 51.5,855.5C 51.5,854.5 51.5,853.5 51.5,852.5C 59.8333,852.5 68.1667,852.5 76.5,852.5C 76.5,851.5 76.5,850.5 76.5,849.5C 84.8333,849.5 93.1667,849.5 101.5,849.5C 101.5,848.5 101.5,847.5 101.5,846.5C 116.515,846.099 131.515,845.432 146.5,844.5 Z"/></g>
<g><path style="opacity:1" fill="#1261ab" d="M 406.5,1002.5 C 403.072,1017.36 399.739,1032.36 396.5,1047.5C 391.941,1070.52 387.274,1093.52 382.5,1116.5C 358.839,1229.14 335.172,1341.8 311.5,1454.5C 268.839,1455.5 226.172,1455.83 183.5,1455.5C 208.249,1335.42 233.249,1215.42 258.5,1095.5C 265.849,1058.1 273.515,1020.77 281.5,983.5C 290.421,941.893 299.088,900.226 307.5,858.5C 350.167,858.5 392.833,858.5 435.5,858.5C 425.833,906.5 416.167,954.5 406.5,1002.5 Z"/></g>
<g><path style="opacity:1" fill="#1260ac" d="M 591.5,894.5 C 562.473,937.667 523.473,968.5 474.5,987C 456.955,993.386 438.955,997.886 420.5,1000.5C 430.312,953.274 440.312,906.107 450.5,859C 492.171,858.167 533.837,858.333 575.5,859.5C 580.609,871.376 585.942,883.043 591.5,894.5 Z"/></g>
<g><path style="opacity:1" fill="#1260ac" d="M 535.5,1084.5 C 571.854,1069.34 604.52,1048.68 633.5,1022.5C 637.122,1020.21 640.455,1017.55 643.5,1014.5C 679.74,1095.36 715.907,1176.36 752,1257.5C 779.539,1124.81 807.206,992.139 835,859.5C 874.427,858.503 913.927,858.17 953.5,858.5C 912.739,1057.47 871.405,1256.31 829.5,1455C 786.496,1455.83 743.496,1455.67 700.5,1454.5C 645.493,1331.14 590.493,1207.8 535.5,1084.5 Z"/></g>
<g><path style="opacity:1" fill="#1260ac" d="M 969.5,858.5 C 1137.5,858.333 1305.5,858.5 1473.5,859C 1465.95,892.36 1458.95,925.86 1452.5,959.5C 1390.16,959.167 1327.83,959.5 1265.5,960.5C 1230.53,1125.37 1196.19,1290.37 1162.5,1455.5C 1119.5,1455.5 1076.5,1455.5 1033.5,1455.5C 1067.83,1290.17 1102.17,1124.83 1136.5,959.5C 1074.17,959.5 1011.83,959.5 949.5,959.5C 956.167,925.833 962.833,892.167 969.5,858.5 Z"/></g>
<g><path style="opacity:1" fill="#1260ac" d="M 1490.5,858.5 C 1652.83,858.5 1815.17,858.5 1977.5,858.5C 1970.94,892.117 1963.94,925.617 1956.5,959C 1836.93,959.168 1717.43,959.668 1598,960.5C 1588.95,1004.06 1579.79,1047.56 1570.5,1091C 1676.17,1091.17 1781.83,1091.67 1887.5,1092.5C 1880.48,1126.1 1873.15,1159.6 1865.5,1193C 1760.17,1193.17 1654.83,1193.67 1549.5,1194.5C 1538.35,1247.73 1527.02,1300.9 1515.5,1354C 1635.5,1354.5 1755.5,1354.67 1875.5,1354.5C 1868.76,1387.89 1861.76,1421.22 1854.5,1454.5C 1691.83,1455.5 1529.17,1455.83 1366.5,1455.5C 1407.58,1256.44 1448.91,1057.44 1490.5,858.5 Z"/></g>
<g><path style="opacity:1" fill="#1260ac" d="M 1995.5,858.5 C 2100.5,858.333 2205.5,858.5 2310.5,859C 2338.14,859.849 2365.48,863.183 2392.5,869C 2444.07,882.575 2473.91,915.741 2482,968.5C 2486.23,1062.53 2446.06,1129.69 2361.5,1170C 2335.04,1180.62 2307.7,1188.12 2279.5,1192.5C 2307.43,1209.6 2330.26,1231.93 2348,1259.5C 2359.1,1278.69 2369.43,1298.36 2379,1318.5C 2399.61,1364.16 2420.11,1409.83 2440.5,1455.5C 2389.5,1455.67 2338.5,1455.5 2287.5,1455C 2259.79,1399.09 2231.96,1343.26 2204,1287.5C 2195.01,1270.17 2185.01,1253.5 2174,1237.5C 2158.66,1218.75 2138.83,1208.91 2114.5,1208C 2101.85,1207.01 2089.19,1206.51 2076.5,1206.5C 2067.77,1206.52 2059.27,1207.18 2051,1208.5C 2034.02,1290.55 2016.86,1372.55 1999.5,1454.5C 1956.5,1455.67 1913.5,1455.83 1870.5,1455C 1912.36,1256.2 1954.03,1057.37 1995.5,858.5 Z M 2102.5,959.5 C 2165.18,959.102 2227.84,959.602 2290.5,961C 2335.66,966.166 2353.83,990.999 2345,1035.5C 2336.56,1070.61 2315.06,1093.44 2280.5,1104C 2260.01,1107.73 2239.34,1109.73 2218.5,1110C 2169.5,1110.5 2120.5,1110.67 2071.5,1110.5C 2081.99,1060.2 2092.33,1009.87 2102.5,959.5 Z"/></g>
<g><path style="opacity:1" fill="#1260ac" d="M 2662.5,858.5 C 2708.17,858.5 2753.83,858.5 2799.5,858.5C 2842.63,1057.47 2885.63,1256.47 2928.5,1455.5C 2882.5,1455.67 2836.5,1455.5 2790.5,1455C 2781.5,1410 2772.5,1365 2763.5,1320C 2678.83,1319.17 2594.16,1319.33 2509.5,1320.5C 2488.42,1356.33 2467.08,1392 2445.5,1427.5C 2426.59,1385.83 2407.25,1344.33 2387.5,1303C 2479.56,1155.03 2571.23,1006.86 2662.5,858.5 Z M 2700.5,998.5 C 2715,1071.53 2729.34,1144.69 2743.5,1218C 2685.83,1218.67 2628.17,1218.67 2570.5,1218C 2613.98,1144.86 2657.32,1071.69 2700.5,998.5 Z"/></g>
<g><path style="opacity:1" fill="#f58034" d="M 731.5,877.5 C 712.599,930.028 683.266,975.695 643.5,1014.5C 640.455,1017.55 637.122,1020.21 633.5,1022.5C 625.5,1022.5 617.5,1022.5 609.5,1022.5C 609.5,1023.5 609.5,1024.5 609.5,1025.5C 601.167,1025.5 592.833,1025.5 584.5,1025.5C 584.5,1026.5 584.5,1027.5 584.5,1028.5C 576.167,1028.5 567.833,1028.5 559.5,1028.5C 559.5,1029.5 559.5,1030.5 559.5,1031.5C 542.833,1032.17 526.167,1032.83 509.5,1033.5C 509.5,1034.5 509.5,1035.5 509.5,1036.5C 500.833,1036.5 492.167,1036.5 483.5,1036.5C 483.5,1037.5 483.5,1038.5 483.5,1039.5C 475.167,1039.5 466.833,1039.5 458.5,1039.5C 458.5,1040.5 458.5,1041.5 458.5,1042.5C 450.167,1042.5 441.833,1042.5 433.5,1042.5C 433.5,1043.5 433.5,1044.5 433.5,1045.5C 421.139,1045.75 408.805,1046.41 396.5,1047.5C 399.739,1032.36 403.072,1017.36 406.5,1002.5C 411.183,1001.93 415.85,1001.26 420.5,1000.5C 438.955,997.886 456.955,993.386 474.5,987C 523.473,968.5 562.473,937.667 591.5,894.5C 592.272,893.306 593.272,892.306 594.5,891.5C 602.167,891.5 609.833,891.5 617.5,891.5C 617.5,890.5 617.5,889.5 617.5,888.5C 626.167,888.5 634.833,888.5 643.5,888.5C 643.5,887.5 643.5,886.5 643.5,885.5C 660.167,884.833 676.833,884.167 693.5,883.5C 693.5,882.5 693.5,881.5 693.5,880.5C 701.833,880.5 710.167,880.5 718.5,880.5C 718.5,879.5 718.5,878.5 718.5,877.5C 722.833,877.5 727.167,877.5 731.5,877.5 Z"/></g>
<g><path style="opacity:1" fill="#f57f34" d="M 206.5,936.5 C 228.699,956.444 253.699,972.11 281.5,983.5C 273.515,1020.77 265.849,1058.1 258.5,1095.5C 178.085,1069.32 114.751,1020.99 68.5,950.5C 76.5,950.5 84.5,950.5 92.5,950.5C 92.5,949.5 92.5,948.5 92.5,947.5C 101.167,947.5 109.833,947.5 118.5,947.5C 118.5,946.5 118.5,945.5 118.5,944.5C 126.833,944.5 135.167,944.5 143.5,944.5C 143.5,943.5 143.5,942.5 143.5,941.5C 151.833,941.5 160.167,941.5 168.5,941.5C 168.5,940.5 168.5,939.5 168.5,938.5C 181.208,938.47 193.875,937.803 206.5,936.5 Z"/></g>
<g><path style="opacity:1" fill="#f58534" d="M 633.5,1022.5 C 604.52,1048.68 571.854,1069.34 535.5,1084.5C 530.512,1087.04 525.512,1089.38 520.5,1091.5C 489.344,1102.46 457.344,1109.96 424.5,1114C 415.103,1114.75 405.769,1115.59 396.5,1116.5C 391.833,1116.5 387.167,1116.5 382.5,1116.5C 387.274,1093.52 391.941,1070.52 396.5,1047.5C 408.805,1046.41 421.139,1045.75 433.5,1045.5C 433.5,1044.5 433.5,1043.5 433.5,1042.5C 441.833,1042.5 450.167,1042.5 458.5,1042.5C 458.5,1041.5 458.5,1040.5 458.5,1039.5C 466.833,1039.5 475.167,1039.5 483.5,1039.5C 483.5,1038.5 483.5,1037.5 483.5,1036.5C 492.167,1036.5 500.833,1036.5 509.5,1036.5C 509.5,1035.5 509.5,1034.5 509.5,1033.5C 526.167,1032.83 542.833,1032.17 559.5,1031.5C 559.5,1030.5 559.5,1029.5 559.5,1028.5C 567.833,1028.5 576.167,1028.5 584.5,1028.5C 584.5,1027.5 584.5,1026.5 584.5,1025.5C 592.833,1025.5 601.167,1025.5 609.5,1025.5C 609.5,1024.5 609.5,1023.5 609.5,1022.5C 617.5,1022.5 625.5,1022.5 633.5,1022.5 Z"/></g>
<g><path style="opacity:1" fill="#1260ac" d="M 520.5,1091.5 C 495.556,1212.77 470.222,1333.94 444.5,1455C 404.833,1455.67 365.167,1455.67 325.5,1455C 349.355,1342.23 373.022,1229.39 396.5,1116.5C 405.769,1115.59 415.103,1114.75 424.5,1114C 457.344,1109.96 489.344,1102.46 520.5,1091.5 Z"/></g>
</svg>
